<?xml version="1.0" encoding="UTF-8" standalone="no"?>
<svg width="18px" height="16px" viewBox="0 0 18 16" version="1.1" xmlns="http://www.w3.org/2000/svg" xmlns:xlink="http://www.w3.org/1999/xlink">
    <!-- Generator: Sketch 39.1 (31720) - http://www.bohemiancoding.com/sketch -->
    <title>heart</title>
    <desc>Created with Sketch.</desc>
    <defs></defs>
    <g id="Page-1" stroke="none" stroke-width="1" fill="none" fill-rule="evenodd">
        <g id="heart" fill="#FF5D5D">
            <path d="M9,2.71271215 C8.84051946,2.43390631 7.784763,0.786499023 5.10410164,0.786499023 C2.17563462,0.786499024 1.0582032,2.59509301 0.765722737,4.5657959 C0.473242272,6.53649879 1.14658193,8.48205614 3.60434578,10.6611331 C5.88734068,12.6852581 8.60343982,14.8769586 8.97817372,15.1784227 L8.97817372,15.213501 C8.97817372,15.213501 8.985594,15.2075509 9,15.1959731 C9.014406,15.2075509 9.02182628,15.213501 9.02182628,15.213501 L9.02182628,15.1784227 C9.39656018,14.8769586 12.1126593,12.6852581 14.3956542,10.6611331 C16.8534181,8.48205614 17.5267577,6.53649879 17.2342773,4.5657959 C16.9417968,2.59509301 15.8243654,0.786499024 12.8958984,0.786499023 C10.215237,0.786499023 9.15948054,2.43390631 9,2.71271215 Z" id="Combined-Shape"></path>
        </g>
    </g>
</svg>